<?xml version="1.0" encoding="UTF-8" standalone="no"?>
<!DOCTYPE svg PUBLIC "-//W3C//DTD SVG 1.1//EN" "http://www.w3.org/Graphics/SVG/1.1/DTD/svg11.dtd">
<svg width="100%" height="100%" viewBox="0 0 594 686" version="1.1" xmlns="http://www.w3.org/2000/svg" xmlns:xlink="http://www.w3.org/1999/xlink" xml:space="preserve" style="fill-rule:evenodd;clip-rule:evenodd;stroke-linejoin:round;stroke-miterlimit:1.41421;">
    <g transform="matrix(0.41455,0,0,0.41455,-187.258,-134.76)">
        <path d="M1167,363L1858.09,762L1858.09,1560L1167,1959L475.912,1560L475.912,762L1167,363Z" style="fill:black;"/>
    </g>
    <g transform="matrix(0.160651,0.0924593,-0.0924593,0.160651,157.631,460.485)">
        <path d="M-22.8,509.9L20.9,509.9L20.9,513.4C20.9,521.4 20,528.4 18.1,534.5C16.3,540.2 13.2,545.5 8.8,550.4C-1,561.5 -13.5,567 -28.7,567C-43.5,567 -56.2,561.7 -66.7,551C-77.3,540.3 -82.5,527.4 -82.5,512.3C-82.5,496.9 -77.1,483.9 -66.4,473.2C-55.7,462.5 -42.6,457.1 -27.2,457.1C-18.9,457.1 -11.2,458.8 -4,462.2C2.9,465.6 9.6,471 16.2,478.6L4.8,489.5C-3.9,477.9 -14.5,472.2 -26.9,472.2C-38.1,472.2 -47.5,476.1 -55.1,483.8C-62.7,491.4 -66.5,500.9 -66.5,512.3C-66.5,524.1 -62.3,533.8 -53.8,541.4C-45.9,548.5 -37.3,552 -28.1,552C-20.2,552 -13.2,549.4 -6.9,544.1C-0.6,538.8 2.9,532.4 3.6,525L-22.8,525L-22.8,509.9Z" style="fill:white;fill-rule:nonzero;"/>
    </g>
    <g transform="matrix(0.160651,0.0924593,-0.0924593,0.160651,153.631,459.524)">
        <rect x="77.5" y="459.2" width="16" height="105.9" style="fill:white;"/>
    </g>
    <g transform="matrix(0.160651,0.0924593,-0.0924593,0.160651,153.631,459.524)">
        <path d="M184.7,474.2L184.7,565L168.7,565L168.7,474.2L144.4,474.2L144.4,459.2L209,459.2L209,474.2L184.7,474.2ZM334.2,464.9L334.2,483.8C325,476.1 315.4,472.2 305.5,472.2C294.6,472.2 285.5,476.1 278,483.9C270.5,491.7 266.8,501.2 266.8,512.4C266.8,523.5 270.5,532.9 278,540.5C285.5,548.1 294.7,551.9 305.6,551.9C311.2,551.9 316,551 319.9,549.2C322.1,548.3 324.4,547.1 326.7,545.5C329.1,543.9 331.5,542.1 334.1,539.9L334.1,559.2C325,564.4 315.4,567 305.3,567C290.2,567 277.3,561.7 266.6,551.2C256,540.6 250.6,527.7 250.6,512.7C250.6,499.2 255.1,487.2 264,476.6C275,463.7 289.2,457.2 306.6,457.2C316.1,457.2 325.3,459.7 334.2,464.9" style="fill:white;fill-rule:nonzero;"/>
    </g>
    <g transform="matrix(0.160651,0.0924593,-0.0924593,0.160651,153.631,459.524)">
        <path d="M410.5,495C410.5,506.7 414.4,516.3 422.3,523.8C430.1,531.3 439.1,535.1 449.4,535.1C460.5,535.1 469.9,531.3 477.5,523.6C485.1,515.8 489,506.4 489,495.2C489,483.9 485.2,474.5 477.7,466.8C470.2,459.1 460.9,455.3 449.9,455.3C438.9,455.3 429.6,459.1 422,466.8C414.3,474.5 410.5,483.8 410.5,495M394.4,494.8C394.4,479.9 399.9,467.1 410.8,456.4C421.7,445.7 434.7,440.4 450,440.4C465.1,440.4 478,445.8 488.8,456.6C499.6,467.4 505,480.3 505,495.5C505,510.7 499.6,523.6 488.7,534.2C477.8,544.9 464.6,550.2 449.1,550.2C435.4,550.2 423.2,545.5 412.3,536C400.4,525.5 394.4,511.8 394.4,494.8" style="fill:rgb(254,75,5);fill-rule:nonzero;"/>
    </g>
    <g transform="matrix(0.160651,0.0924593,-0.0924593,0.160651,153.631,459.524)">
        <rect x="552.1" y="459.2" width="16" height="105.9" style="fill:white;"/>
    </g>
    <g transform="matrix(0.160651,0.0924593,-0.0924593,0.160651,153.63,458.532)">
        <path d="M630,565.1L630,452L707.2,532.8L707.2,459.2L723.2,459.2L723.2,571.5L646,491L646,565.1L630,565.1Z" style="fill:white;fill-rule:nonzero;"/>
    </g>
    <g transform="matrix(0.342068,0,0,0.342068,-101.656,-46.5484)">
        <path d="M1167,363L1858.09,762L1858.09,1560L1167,1959L475.912,1560L475.912,762L1167,363Z" style="fill:white;"/>
    </g>
    <circle cx="121" cy="261" r="37" style="fill:rgb(243,165,0);"/>
    <path d="M306,352C301.401,351.038 297.332,349.158 294,346C294.97,344.368 296.676,343.425 300,344C303.072,345.817 305.007,348.536 306,352Z" style="fill:black;stroke-width:1.25px;stroke:black;"/>
    <path d="M316,357C322.006,357.414 328.008,357.253 334,356C333.265,353.93 330.766,352.673 327,352C322.429,352.43 318.704,354.016 316,357Z" style="fill:black;stroke-width:1.25px;stroke:black;"/>
    <path d="M288,334C285.335,335.921 285.043,339.519 286,344C292.255,355.499 301.596,354.914 310,358C324.745,362.73 333.093,360.042 342,358C344.788,350.391 341.706,346.308 339,342" style="fill:none;stroke-width:1.25px;stroke:black;"/>
    <path d="M263,367C280.662,363.473 295.77,363.905 304,375C328.929,374.613 336.044,381.165 345,387C343.598,390.418 341.206,393.168 333,392L301,384C285.056,379.78 271.207,374.636 263,367Z" style="fill:none;stroke-width:1.25px;stroke:black;"/>
    <path d="M263,368C269.318,383.201 280.952,393.848 299,399C318.381,400.89 334.624,401.031 338,394" style="fill:none;stroke-width:1.25px;stroke:black;"/>
    <g transform="matrix(1,0,0,1,2,0)">
        <circle cx="369" cy="311" r="6" style="fill:black;stroke-width:1.25px;stroke:black;"/>
    </g>
    <ellipse cx="287" cy="286.5" rx="7" ry="5.5" style="fill:black;stroke-width:1.25px;stroke:black;"/>
    <path d="M395,392C380.539,416.134 366.271,439.248 352,439" style="fill:none;stroke-width:1.25px;stroke:black;"/>
    <path d="M225,346C221.884,374.127 221.512,399.788 235,413" style="fill:none;stroke-width:1.25px;stroke:black;"/>
    <g transform="matrix(0.996597,-0.082428,0.082428,0.996597,-30.5511,25.5364)">
        <path d="M290,401L288,407L290,413L297,409L298,404L290,401Z" style="fill:black;stroke-width:1.25px;stroke:black;"/>
    </g>
    <g>
        <path d="M251,392C272.992,437.879 303.239,443.731 340,418L352,439C333.749,456.484 312.338,465.13 286,460C255.584,457.987 236.966,443.968 235,413L251,392Z" style="fill:black;stroke-width:1.25px;stroke:black;"/>
        <path d="M352,398L358,385L346,370L309,361L262,352L252,360L254,374L261,364C275.924,360.572 290.936,362.273 306,367C318.989,370.659 331.884,374.708 344,382L352,398Z" style="fill:black;stroke-width:1.25px;stroke:black;"/>
        <path d="M304,294C289.971,294.523 276.471,292.365 264,285C280.917,271.669 293.092,279.947 304,294Z" style="fill:none;stroke-width:1.25px;stroke:black;"/>
        <path d="M350,308C362.104,317.441 374.454,319.623 387,316C380.751,303.648 368.587,300.713 350,308Z" style="fill:none;stroke-width:1.25px;stroke:black;"/>
        <path d="M317,280L320,268C304.124,258.708 287.375,252.75 269,253C262.586,257.266 258.196,261.996 255,267C260.509,264.216 266.15,262.37 272,262C289.363,263.899 317,280 317,280Z" style="fill:black;stroke-width:1.25px;stroke:black;"/>
        <path d="M350,289L351,278C366.058,278.68 381.088,280.15 396,285L407,304L392,295C378.027,288.509 364.012,289.084 350,289Z" style="fill:black;stroke-width:1.25px;stroke:black;"/>
        <path d="M230,301L228,277L232,248L243,223L264,192L293,175L310,168L343,167L379,163L413,191L435,221L444,253L439,300L424,328L413,343L416,312C417.856,298.372 415.048,284.697 410,271C412.578,250.189 409.539,230.483 385,215C372.362,213.575 361.699,207.082 349,208C338.747,199.888 325.265,200.938 313,198C295.653,202.653 279.122,205.324 273,222C249.536,238.728 235.783,273.8 230,301Z" style="fill:black;stroke-width:1.25px;stroke:black;"/>
        <g transform="matrix(1,0,0,1,2,0)">
            <path d="M228,301L226,282C223.54,277.576 220.672,276.741 217,283C216.182,297.538 209.258,313.033 214,326C213.56,332.531 214.304,337.739 215,343C218.357,349.662 221.684,349.001 225,346L226,322C223.138,327.173 228.502,314.969 226,310C226.979,302.082 224.793,304.863 227,299C229.766,295.486 225.432,296.82 228,301Z" style="fill:none;stroke-width:1.25px;stroke:black;"/>
        </g>
        <path d="M413,345C413,345 428.346,331.368 431,334C434.762,334.027 433.509,342.23 427,359C423.348,362.522 420.015,367.522 417,374C411.392,379.533 406.651,385.318 405,392C401.013,394.815 397.785,395.208 396,391L413,345Z" style="fill:none;stroke-width:1.25px;stroke:black;"/>
    </g>
    <path d="M244,441L247,503" style="fill:none;stroke-width:1.25px;stroke:black;"/>
    <path d="M245,474L231,503L199,514C189.777,516.002 184.351,514.131 188,503L193,490C196.234,485.727 194.059,485.066 188,487L163,506C187.857,478.427 214.333,457.328 243,445" style="fill:none;stroke-width:1.25px;stroke:black;"/>
    <path d="M238,538C255.821,509.442 274.199,483.352 295,468C325.342,472.121 340.563,481.738 332,500C334.146,500.588 336.146,500.254 338,499L396,445C381.943,433.862 380.726,426.024 376,421" style="fill:none;stroke-width:1.25px;stroke:black;"/>
    <path d="M238,538L238,545C259.945,519.41 291.422,494.412 325,477" style="fill:none;stroke-width:1.25px;stroke:black;"/>
    <path d="M231,503L237,538C239.944,554.719 237.231,568.511 232,581C235.614,536.67 219.971,516.049 194,515C199.323,517.819 177.442,531.603 159,544" style="fill:none;stroke-width:1.25px;stroke:black;"/>
    <path d="M530,491L465,476L396,445" style="fill:none;stroke-width:1.25px;stroke:black;"/>
</svg>
